<?xml version="1.0" standalone="no"?>
<!DOCTYPE svg PUBLIC "-//W3C//DTD SVG 20010904//EN"
 "http://www.w3.org/TR/2001/REC-SVG-20010904/DTD/svg10.dtd">
<svg version="1.0" xmlns="http://www.w3.org/2000/svg"
 width="1280.000000pt" height="939.000000pt" viewBox="0 0 1280.000000 939.000000"
 preserveAspectRatio="xMidYMid meet">
<metadata>
Created by potrace 1.15, written by Peter Selinger 2001-2017
</metadata>
<g transform="translate(0.000000,939.000000) scale(0.100000,-0.100000)"
fill="#000000" stroke="none">
<path d="M8386 8891 c-3 -5 19 -19 48 -31 30 -12 62 -30 72 -41 17 -19 17 -20
-2 -37 -207 -190 -254 -237 -246 -240 6 -2 39 11 74 29 92 47 373 139 423 139
47 0 57 12 44 48 -11 29 -84 63 -214 97 -183 50 -190 51 -199 36z"/>
<path d="M11568 8854 c39 -19 72 -41 72 -49 0 -8 -24 -36 -52 -62 -29 -26 -91
-85 -138 -131 -93 -91 -94 -90 50 -24 94 43 343 122 385 122 63 0 56 54 -13
89 -52 27 -294 91 -340 91 -36 -1 -36 -2 36 -36z"/>
<path d="M7683 8498 c-5 -7 -19 -37 -31 -67 -19 -46 -20 -57 -9 -68 15 -15
167 -49 265 -59 l64 -7 -27 -21 c-40 -32 -50 -124 -40 -369 l7 -198 47 -23
c64 -32 144 -50 194 -42 52 8 145 52 149 70 2 10 96 -23 328 -115 179 -71 335
-133 346 -138 21 -9 21 -11 8 -62 -9 -34 -14 -109 -14 -209 0 -173 12 -240 59
-327 16 -29 26 -55 22 -58 -26 -16 -325 -125 -343 -125 -13 -1 -63 10 -113 24
-185 49 -388 71 -436 46 -14 -8 -23 -7 -32 2 -11 10 -4 22 39 67 29 31 51 57
49 59 -16 16 -165 -114 -165 -144 0 -17 -155 59 -275 135 -43 28 -85 51 -92
51 -18 0 -76 -131 -64 -143 13 -13 137 -42 245 -57 64 -9 84 -15 73 -22 -42
-23 -47 -55 -47 -320 l0 -254 58 -29 c45 -23 74 -29 142 -33 79 -4 89 -2 140
25 l55 29 5 103 5 102 204 80 203 80 76 -16 c42 -8 128 -21 192 -27 156 -16
208 -1 140 38 -30 18 -37 37 -42 108 l-3 38 62 25 63 25 67 -42 c80 -51 179
-93 288 -122 69 -19 105 -22 270 -22 217 0 278 12 433 84 l87 41 360 -192
c198 -105 370 -197 383 -205 21 -14 22 -21 22 -129 l0 -115 38 -19 c111 -57
200 -62 298 -17 l53 25 3 231 c2 127 -1 238 -5 246 -5 9 -7 17 -5 20 3 2 42
-10 89 -27 117 -43 307 -94 463 -125 156 -30 339 -43 351 -24 9 15 -8 32 -60
59 -39 20 -40 23 -50 91 -5 39 -14 71 -20 71 -5 -1 -12 -29 -15 -63 -7 -76
-18 -58 -22 32 -2 50 -6 65 -18 65 -11 0 -16 -15 -18 -62 l-3 -63 -68 34
c-210 106 -671 201 -744 153 -21 -14 -24 -14 -35 3 -6 10 -8 20 -4 22 17 8 95
98 90 103 -17 17 -158 -113 -158 -144 0 -6 -2 -11 -4 -11 -10 0 -222 113 -259
138 -43 30 -101 62 -112 62 -6 0 -47 -87 -59 -126 -5 -18 0 -23 36 -34 24 -7
102 -23 173 -35 83 -15 123 -25 112 -30 -26 -11 -47 -58 -47 -105 0 -22 -1
-40 -3 -40 -2 0 -84 43 -183 96 -98 53 -235 126 -304 162 -69 36 -127 66 -128
68 -2 1 15 29 37 61 72 103 83 151 82 358 -1 211 -4 232 -41 306 l-29 57 237
112 c283 134 262 126 262 106 0 -25 118 -77 189 -83 65 -6 142 14 185 48 l26
20 0 219 c0 120 -4 230 -9 243 l-10 25 92 -33 c195 -69 456 -127 636 -141 49
-4 97 -4 106 0 15 5 14 10 -9 37 -22 26 -26 41 -26 92 0 34 -4 68 -9 76 -18
28 -31 -1 -31 -71 0 -96 -10 -80 -18 29 -6 69 -10 88 -22 88 -11 0 -16 -18
-21 -75 -3 -41 -6 -70 -7 -65 -3 19 -134 82 -242 118 -206 69 -521 113 -562
79 -12 -10 -18 -10 -27 2 -9 11 -1 26 40 75 28 33 48 61 45 61 -25 0 -166
-128 -166 -151 0 -5 -2 -9 -5 -9 -14 0 -209 104 -278 149 -44 27 -85 47 -92
45 -17 -7 -59 -119 -52 -138 8 -20 215 -66 299 -66 l38 0 -32 -29 -33 -29 -3
-154 -3 -154 -317 -151 -317 -151 -50 28 c-253 142 -633 180 -934 93 -92 -26
-203 -78 -265 -124 -22 -16 -45 -29 -50 -29 -6 0 -187 70 -403 156 l-393 157
0 128 c0 70 -3 134 -6 142 -4 12 23 6 108 -23 318 -109 747 -179 765 -125 3
10 -56 51 -68 48 -4 -1 -10 34 -14 77 -5 58 -11 80 -21 80 -11 0 -14 -16 -14
-66 0 -41 -4 -63 -10 -59 -5 3 -10 35 -10 70 0 72 -6 95 -26 95 -11 0 -14 -16
-14 -64 l0 -65 -82 38 c-183 85 -457 152 -626 155 -85 1 -106 -2 -116 -15 -10
-15 -13 -15 -22 5 -9 19 -4 29 38 72 56 57 61 72 16 47 -42 -23 -128 -110
-128 -129 0 -8 -3 -14 -6 -14 -13 0 -204 103 -279 150 -87 55 -88 55 -102 38z
m670 -1914 c31 -10 57 -21 57 -24 0 -6 -102 -50 -115 -50 -2 0 -5 17 -7 38 -3
20 -9 46 -13 57 -7 17 -6 18 6 9 8 -7 40 -20 72 -30z m676 -21 l-1 -48 -10 34
c-5 18 -7 40 -4 47 10 27 16 14 15 -33z"/>
<path d="M2208 8449 c-207 -22 -598 -83 -643 -101 -27 -11 -97 -44 -155 -74
-456 -236 -690 -662 -690 -1256 0 -116 0 -118 -34 -170 -60 -94 -98 -180 -142
-319 -57 -182 -75 -277 -81 -440 -7 -164 7 -288 48 -437 16 -59 38 -146 49
-194 85 -397 314 -760 637 -1008 l83 -63 -88 -59 c-334 -228 -624 -572 -840
-995 -394 -773 -461 -1554 -183 -2127 154 -316 386 -541 751 -725 304 -154
626 -245 1035 -293 139 -16 596 -16 730 0 464 57 834 178 1136 374 l76 49 376
-135 377 -136 243 -155 c216 -137 252 -157 313 -170 219 -46 441 34 526 191
14 27 119 308 233 624 113 316 272 757 353 980 l147 405 0 95 c0 86 -3 101
-32 162 -20 44 -56 93 -106 145 -44 47 -84 100 -99 133 -31 67 -95 132 -165
167 -60 29 -159 41 -214 25 -35 -9 -46 -5 -215 83 l-179 93 -15 223 -15 222
-55 20 c-30 11 -56 21 -58 22 -1 1 71 249 162 551 106 352 290 922 514 1589
192 572 368 1098 392 1168 32 97 47 130 62 136 16 6 34 45 74 157 30 82 54
154 54 160 0 14 -141 77 -150 67 -4 -5 -30 -73 -58 -153 -33 -95 -50 -161 -50
-190 1 -51 -37 -172 -152 -490 -250 -689 -663 -1750 -915 -2346 -92 -218 -239
-534 -248 -534 -2 0 -30 9 -63 20 -57 20 -59 20 -74 2 -8 -10 -73 -84 -144
-165 -116 -133 -132 -147 -155 -142 -14 3 -88 18 -164 34 -76 16 -140 31 -142
33 -1 1 4 97 13 212 l16 208 -25 18 c-46 36 -184 62 -215 42 -7 -4 -24 -42
-39 -84 -15 -43 -31 -78 -34 -78 -4 0 -39 39 -78 88 -129 159 -353 362 -521
472 l-23 15 48 36 c369 275 626 696 683 1119 7 47 21 132 33 190 15 79 21 146
21 267 1 90 4 163 7 163 3 0 32 -9 64 -20 32 -11 84 -20 116 -20 68 0 110 28
130 87 25 78 -10 226 -80 326 -40 59 -83 95 -346 290 -134 99 -236 183 -260
213 -22 27 -60 72 -85 99 -36 39 -55 75 -90 165 -44 118 -191 467 -252 600
-31 67 -50 90 -180 216 -218 212 -353 292 -543 320 -97 15 -283 16 -407 3z
m1839 -2231 c-3 -8 -6 -5 -6 6 -1 11 2 17 5 13 3 -3 4 -12 1 -19z"/>
<path d="M9122 8154 c2 -27 8 -48 13 -46 15 3 12 85 -3 90 -10 3 -12 -8 -10
-44z"/>
<path d="M12246 8193 c-8 -8 -8 -56 0 -77 12 -30 24 -16 24 28 0 43 -10 63
-24 49z"/>
<path d="M8376 7302 c-3 -5 11 -14 31 -21 51 -19 103 -51 103 -64 0 -7 -21
-29 -48 -50 -91 -74 -235 -211 -224 -215 6 -2 42 13 81 33 96 48 355 135 402
135 72 0 90 27 46 68 -31 30 -73 45 -229 86 -146 39 -154 40 -162 28z"/>
<path d="M11645 7119 c63 -32 85 -47 85 -58 0 -4 -39 -39 -87 -77 -121 -97
-207 -178 -195 -182 6 -2 39 11 74 29 98 50 363 139 412 139 24 0 48 6 54 13
16 20 -4 55 -45 75 -48 25 -290 92 -329 92 -26 -1 -22 -4 31 -31z"/>
<path d="M9102 6568 c4 -59 28 -63 28 -4 0 35 -4 46 -16 46 -12 0 -14 -9 -12
-42z"/>
<path d="M12312 6413 c2 -27 8 -48 13 -48 6 0 11 21 13 48 3 38 0 47 -13 47
-13 0 -16 -9 -13 -47z"/>
</g>
</svg>
